2024-05-26T08:29:19.666Z [ERROR]: User requests exceed the rate limit.
2024-05-26T08:38:29.632Z [ERROR]: Scheduled start time is required
2024-05-26T08:40:24.313Z [ERROR]: User requests exceed the rate limit.
2024-05-26T08:45:05.184Z [ERROR]: User requests exceed the rate limit.
2024-05-26T10:28:16.160Z [ERROR]: User requests exceed the rate limit.
2024-05-26T10:41:40.596Z [ERROR]: activeStreams is not defined
2024-05-26T10:41:40.809Z [ERROR]: stderr: ffmpeg version 6.1.1
2024-05-26T10:41:40.809Z [ERROR]: stderr:  Copyright (c) 2000-2023 the FFmpeg developers
  built with Apple clang version 15.0.0 (clang-1500.3.9.4)
  configuration: --prefix=/opt/homebrew/Cellar/ffmpeg/6.1.1_6 --enable-shared --enable-pthreads --enable-version3 --cc=clang --host-cflags= --host-ldflags='-Wl,-ld_classic' --enable-ffplay --enable-gnutls --enable-gpl --enable-libaom --enable-libaribb24 --enable-libbluray --enable-libdav1d --enable-libharfbuzz --enable-libjxl --enable-libmp3lame --enable-libopus --enable-librav1e --enable-librist --enable-librubberband --enable-libsnappy --enable-libsrt --enable-libssh --enable-libsvtav1 --enable-libtesseract --enable-libtheora --enable-libvidstab --enable-libvmaf --enable-libvorbis --enable-libvpx --enable-libwebp --enable-libx264 --enable-libx265 --enable-libxml2 --enable-libxvid --enable-lzma --enable-libfontconfig --enable-libfreetype --enable-frei0r --enable-libass --enable-libopencore-amrnb --enable-libopencore-amrwb --enable-libopenjpeg --enable-libopenvino --enable-libspeex --enable-libsoxr --enable-libzmq --enable-libzimg --disable-libjack --disable-indev=jack --enable-videotoolbox --enable-audiotoolbox --enable-neon

2024-05-26T10:41:40.811Z [ERROR]: stderr:   libavutil      58. 29.100 / 58. 29.100
  libavcodec     60. 31.102 / 60. 31.102

2024-05-26T10:41:40.811Z [ERROR]: stderr:   libavformat    60. 16.100 / 60. 16.100
  libavdevice    60.  3.100 / 60.  3.100
  libavfilter     9. 12.100 /  9. 12.100
  libswscale      7.  5.100 /  7.  5.100
  libswresample   4. 12.100 /  4. 12.100
  libpostproc    57.  3.100 / 57.  3.100

2024-05-26T10:41:40.817Z [ERROR]: stderr: Trailing option(s) found in the command: may be ignored.

2024-05-26T10:41:42.418Z [ERROR]: stderr: Input #0, mov,mp4,m4a,3gp,3g2,mj2, from 'https://runstream.b-cdn.net/1716226581077-d908b366ac9720091904869711ae3454-doctor-video.mp4':
  Metadata:
    major_brand     : mp42
    minor_version   : 0
    compatible_brands: mp42mp41isomavc1
    creation_time   : 2019-11-07T11:31:51.000000Z
  Duration: 00:00:24.64, start: 0.000000, bitrate: 11228 kb/s

2024-05-26T10:41:42.418Z [ERROR]: stderr:   Stream #0:0[0x1](und): Video: h264 (High) (avc1 / 0x31637661), yuv420p(tv, bt709, progressive), 3840x2160, 11225 kb/s, 25 fps, 25 tbr, 25 tbn (default)
    Metadata:
      creation_time   : 2019-11-07T11:31:51.000000Z
      handler_name    : L-SMASH Video Handler
      vendor_id       : [0][0][0][0]
      encoder         : AVC Coding
At least one output file must be specified

2024-05-26T10:41:42.434Z [INFO]: ffmpeg process exited with code 1
2024-05-26T10:42:02.893Z [ERROR]: ingestionInfo is not defined
2024-05-26T10:42:03.172Z [ERROR]: stderr: ffmpeg version 6.1.1
2024-05-26T10:42:03.172Z [ERROR]: stderr:  Copyright (c) 2000-2023 the FFmpeg developers
  built with Apple clang version 15.0.0 (clang-1500.3.9.4)
  configuration: --prefix=/opt/homebrew/Cellar/ffmpeg/6.1.1_6 --enable-shared --enable-pthreads --enable-version3 --cc=clang --host-cflags= --host-ldflags='-Wl,-ld_classic' --enable-ffplay --enable-gnutls --enable-gpl --enable-libaom --enable-libaribb24 --enable-libbluray --enable-libdav1d --enable-libharfbuzz --enable-libjxl --enable-libmp3lame --enable-libopus --enable-librav1e --enable-librist --enable-librubberband --enable-libsnappy --enable-libsrt --enable-libssh --enable-libsvtav1 --enable-libtesseract --enable-libtheora --enable-libvidstab --enable-libvmaf --enable-libvorbis --enable-libvpx --enable-libwebp --enable-libx264 --enable-libx265 --enable-libxml2 --enable-libxvid --enable-lzma --enable-libfontconfig --enable-libfreetype --enable-frei0r --enable-libass --enable-libopencore-amrnb --enable-libopencore-amrwb --enable-libopenjpeg --enable-libopenvino --enable-libspeex --enable-libsoxr --enable-libzmq --enable-libzimg --disable-libjack --disable-indev=jack --enable-videotoolbox --enable-audiotoolbox --enable-neon

2024-05-26T10:42:03.173Z [ERROR]: stderr:   libavutil      58. 29.100 / 58. 29.100
  libavcodec     60. 31.102 / 60. 31.102
  libavformat    60. 16.100 / 60. 16.100

2024-05-26T10:42:03.173Z [ERROR]: stderr:   libavdevice    60.  3.100 / 60.  3.100
  libavfilter     9. 12.100 /  9. 12.100
  libswscale      7.  5.100 /  7.  5.100
  libswresample   4. 12.100 /  4. 12.100
  libpostproc    57.  3.100 / 57.  3.100

2024-05-26T10:42:03.180Z [ERROR]: stderr: Trailing option(s) found in the command: may be ignored.

2024-05-26T10:42:04.558Z [ERROR]: stderr: Input #0, mov,mp4,m4a,3gp,3g2,mj2, from 'https://runstream.b-cdn.net/1716226581077-d908b366ac9720091904869711ae3454-doctor-video.mp4':
  Metadata:
    major_brand     : mp42
    minor_version   : 0
    compatible_brands: mp42mp41isomavc1
    creation_time   : 2019-11-07T11:31:51.000000Z
  Duration: 00:00:24.64, start: 0.000000, bitrate: 11228 kb/s
  Stream #0:0[0x1](und): Video: h264 (High) (avc1 / 0x31637661), yuv420p(tv, bt709, progressive), 3840x2160, 11225 kb/s, 25 fps, 25 tbr, 25 tbn (default)
    Metadata:
      creation_time   : 
2024-05-26T10:42:04.559Z [ERROR]: stderr: 2019-11-07T11:31:51.000000Z
      handler_name    : L-SMASH Video Handler
      vendor_id       : [0][0][0][0]
      encoder         : AVC Coding
At least one output file must be specified

2024-05-26T10:42:04.567Z [INFO]: ffmpeg process exited with code 1
2024-05-26T10:42:37.374Z [ERROR]: Cannot set properties of undefined (setting 'hpwy-8y7k-9zqz-4m4p-b6vg')
2024-05-26T10:42:37.434Z [ERROR]: stderr: ffmpeg version 6.1.1 Copyright (c) 2000-2023 the FFmpeg developers
  built with Apple clang version 15.0.0 (clang-1500.3.9.4)
  configuration: --prefix=/opt/homebrew/Cellar/ffmpeg/6.1.1_6 --enable-shared --enable-pthreads --enable-version3 --cc=clang --host-cflags= --host-ldflags='-Wl,-ld_classic' --enable-ffplay --enable-gnutls --enable-gpl --enable-libaom --enable-libaribb24 --enable-libbluray --enable-libdav1d --enable-libharfbuzz --enable-libjxl --enable-libmp3lame --enable-libopus --enable-librav1e --enable-librist --enable-librubberband --enable-libsnappy --enable-libsrt --enable-libssh --enable-libsvtav1 --enable-libtesseract --enable-libtheora --enable-libvidstab --enable-libvmaf --enable-libvorbis --enable-libvpx --enable-libwebp --enable-libx264 --enable-libx265 --enable-libxml2 --enable-libxvid --enable-lzma --enable-libfontconfig --enable-libfreetype --enable-frei0r --enable-libass --enable-libopencore-amrnb --enable-libopencore-amrwb --enable-libopenjpeg --enable-libopenvino --enable-libspeex --enable-libsoxr --enable-libzmq --enable-libzimg --disable-libjack --disable-indev=jack --enable-videotoolbox --enable-audiotoolbox --enable-neon
  libavutil      58. 29.100 / 58. 29.100
  libavcodec     60. 31.102 / 60. 31.102
  libavformat    60. 16.100 / 60. 16.100
  libavdevice    60.  3.100 / 60.  3.100
  libavfilter     9. 12.100 /  9. 12.100
  libswscale      7.  5.100 /  7.  5.100
  libswresample   4. 12.100 /  4. 12.100
  libpostproc    57.  3.100 / 57.  3.100

2024-05-26T10:42:37.437Z [ERROR]: stderr: Trailing option(s) found in the command: may be ignored.

2024-05-26T10:42:38.688Z [ERROR]: stderr: Input #0, mov,mp4,m4a,3gp,3g2,mj2, from 'https://runstream.b-cdn.net/1716226581077-d908b366ac9720091904869711ae3454-doctor-video.mp4':
  Metadata:
    major_brand     : mp42
    minor_version   : 0
    compatible_brands: mp42mp41isomavc1
    creation_time   : 2019-11-07T11:31:51.000000Z
  Duration: 00:00:24.64, start: 0.000000, bitrate: 11228 kb/s
  Stream #0:0[0x1](und): Video: h264 (High) (avc1 / 0x31637661), yuv420p(tv, bt709, progressive), 3840x2160, 11225 kb/s, 25 fps, 25 tbr, 25 tbn (default)

2024-05-26T10:42:38.688Z [ERROR]: stderr:     Metadata:
      creation_time   : 2019-11-07T11:31:51.000000Z
      handler_name    : L-SMASH Video Handler
      vendor_id       : [0][0][0][0]
      encoder         : AVC Coding
At least one output file must be specified

2024-05-26T10:42:38.693Z [INFO]: ffmpeg process exited with code 1
2024-05-26T10:43:44.228Z [ERROR]: Cannot set properties of undefined (setting 'hpwy-8y7k-9zqz-4m4p-b6vg')
2024-05-26T10:43:44.297Z [ERROR]: stderr: ffmpeg version 6.1.1 Copyright (c) 2000-2023 the FFmpeg developers
  built with Apple clang version 15.0.0 (clang-1500.3.9.4)
  configuration: --prefix=/opt/homebrew/Cellar/ffmpeg/6.1.1_6 --enable-shared --enable-pthreads --enable-version3 --cc=clang --host-cflags= --host-ldflags='-Wl,-ld_classic' --enable-ffplay --enable-gnutls --enable-gpl --enable-libaom --enable-libaribb24 --enable-libbluray --enable-libdav1d --enable-libharfbuzz --enable-libjxl --enable-libmp3lame --enable-libopus --enable-librav1e --enable-librist --enable-librubberband --enable-libsnappy --enable-libsrt --enable-libssh --enable-libsvtav1 --enable-libtesseract --enable-libtheora --enable-libvidstab --enable-libvmaf --enable-libvorbis --enable-libvpx --enable-libwebp --enable-libx264 --enable-libx265 --enable-libxml2 --enable-libxvid --enable-lzma --enable-libfontconfig --enable-libfreetype --enable-frei0r --enable-libass --enable-libopencore-amrnb --enable-libopencore-amrwb --enable-libopenjpeg --enable-libopenvino --enable-libspeex --enable-libsoxr --enable-libzmq --enable-libzimg --disable-libjack --disable-indev=jack --enable-videotoolbox --enable-audiotoolbox --enable-neon

2024-05-26T10:43:44.297Z [ERROR]: stderr:   libavutil      58. 29.100 / 58. 29.100
  libavcodec     60. 31.102 / 60. 31.102
  libavformat    60. 16.100 / 60. 16.100
  libavdevice    60.  3.100 / 60.  3.100
  libavfilter     9. 12.100 /  9. 12.100
  libswscale      7.  5.100 /  7.  5.100
  libswresample   4. 12.100 /  4. 12.100
  libpostproc    57.  3.100 / 57.  3.100

2024-05-26T10:43:44.301Z [ERROR]: stderr: Trailing option(s) found in the command: may be ignored.

2024-05-26T10:43:46.494Z [ERROR]: stderr: Input #0, mov,mp4,m4a,3gp,3g2,mj2, from 'https://runstream.b-cdn.net/1716226581077-d908b366ac9720091904869711ae3454-doctor-video.mp4':
  Metadata:
    major_brand     : mp42
    minor_version   : 0
    compatible_brands: mp42mp41isomavc1
    creation_time   : 2019-11-07T11:31:51.000000Z
  Duration: 00:00:24.64, start: 0.000000, bitrate: 11228 kb/s
  Stream #0:0[0x1](und): Video: h264 (High) (avc1 / 0x31637661), yuv420p(tv, bt709, progressive), 3840x2160, 11225 kb/s, 25 fps, 25 tbr, 25 tbn (default)
    Metadata:
      creation_time   : 2019-11-07T11:31:51.000000Z
2024-05-26T10:43:46.495Z [ERROR]: stderr: 
      handler_name    : L-SMASH Video Handler
      vendor_id       : [0][0][0][0]
      encoder         : AVC Coding
At least one output file must be specified

2024-05-26T10:43:46.498Z [INFO]: ffmpeg process exited with code 1
